HIERARCHY
ROOT hip
{
  OFFSET 0 0 0
  CHANNELS 6 Xposition Yposition Zposition Zrotation Yrotation Xrotation
  JOINT abdomen
  {
    OFFSET 0 20.6881 -0.73152
    CHANNELS 3 Zrotation Xrotation Yrotation
    JOINT chest
    {
      OFFSET 0 11.7043 -0.48768
      CHANNELS 3 Zrotation Xrotation Yrotation
      JOINT neck
      {
        OFFSET 0 22.1894 -2.19456
        CHANNELS 3 Zrotation Xrotation Yrotation
        JOINT head
        {
          OFFSET -0.24384 7.07133 1.2192
          CHANNELS 3 Zrotation Xrotation Yrotation
          JOINT leftEye
          {
            OFFSET 4.14528 8.04674 8.04672
            CHANNELS 3 Zrotation Xrotation Yrotation
            End Site
            {
              OFFSET 1 0 0
            }
          }
          JOINT rightEye
          {
            OFFSET -3.6576 8.04674 8.04672
            CHANNELS 3 Zrotation Xrotation Yrotation
            End Site
            {
              OFFSET 1 0 0
            }
          }
        }
      }
      JOINT rCollar
      {
        OFFSET -2.68224 19.2634 -4.8768
        CHANNELS 3 Zrotation Xrotation Yrotation
        JOINT rShldr
        {
          OFFSET -8.77824 -1.95073 1.46304
          CHANNELS 3 Zrotation Xrotation Yrotation
          JOINT rForeArm
          {
            OFFSET -28.1742 -1.7115 0.48768
            CHANNELS 3 Zrotation Xrotation Yrotation
            JOINT rHand
            {
              OFFSET -22.5879 0.773209 7.07136
              CHANNELS 3 Zrotation Xrotation Yrotation
              JOINT rThumb1
              {
                OFFSET -1.2192 -0.487915 3.41376
                CHANNELS 3 Zrotation Xrotation Yrotation
                JOINT rThumb2
                {
                  OFFSET -3.37035 -0.52449 3.41376
                  CHANNELS 3 Zrotation Xrotation Yrotation
                  End Site
                  {
                    OFFSET -1.78271 -1.18214 1.43049
                  }
                }
              }
              JOINT rIndex1
              {
                OFFSET -7.75947 0.938293 5.60832
                CHANNELS 3 Zrotation Xrotation Yrotation
                JOINT rIndex2
                {
                  OFFSET -2.54057 -0.884171 1.56538
                  CHANNELS 3 Zrotation Xrotation Yrotation
                  End Site
                  {
                    OFFSET -1.62519 -0.234802 1.16502
                  }
                }
              }
              JOINT rMid1
              {
                OFFSET -8.24714 1.18213 3.41376
                CHANNELS 3 Zrotation Xrotation Yrotation
                JOINT rMid2
                {
                  OFFSET -3.10165 -0.590103 1.0647
                  CHANNELS 3 Zrotation Xrotation Yrotation
                  End Site
                  {
                    OFFSET -2.48547 -0.328903 0.83742
                  }
                }
              }
              JOINT rRing1
              {
                OFFSET -8.82822 0.546677 1.51678
                CHANNELS 3 Zrotation Xrotation Yrotation
                JOINT rRing2
                {
                  OFFSET -2.60934 -0.819778 -0.0198488
                  CHANNELS 3 Zrotation Xrotation Yrotation
                  End Site
                  {
                    OFFSET -2.33842 -0.294052 0.168128
                  }
                }
              }
              JOINT rPinky1
              {
                OFFSET -8.27202 -0.0477905 -0.4584
                CHANNELS 3 Zrotation Xrotation Yrotation
                JOINT rPinky2
                {
                  OFFSET -1.82734 -0.647385 -0.700984
                  CHANNELS 3 Zrotation Xrotation Yrotation
                  End Site
                  {
                    OFFSET -1.69225 -0.51767 -0.607171
                  }
                }
              }
            }
          }
        }
      }
      JOINT lCollar
      {
        OFFSET 2.68224 19.2634 -4.8768
        CHANNELS 3 Zrotation Xrotation Yrotation
        JOINT lShldr
        {
          OFFSET 8.77824 -1.95073 1.46304
          CHANNELS 3 Zrotation Xrotation Yrotation
          JOINT lForeArm
          {
            OFFSET 28.1742 -1.7115 0.48768
            CHANNELS 3 Zrotation Xrotation Yrotation
            JOINT lHand
            {
              OFFSET 22.5879 0.773209 7.07136
              CHANNELS 3 Zrotation Xrotation Yrotation
              JOINT lThumb1
              {
                OFFSET 1.2192 -0.487915 3.41376
                CHANNELS 3 Zrotation Xrotation Yrotation
                JOINT lThumb2
                {
                  OFFSET 3.37035 -0.52449 3.41376
                  CHANNELS 3 Zrotation Xrotation Yrotation
                  End Site
                  {
                    OFFSET 1.78271 -1.18214 1.43049
                  }
                }
              }
              JOINT lIndex1
              {
                OFFSET 7.75947 0.938293 5.60832
                CHANNELS 3 Zrotation Xrotation Yrotation
                JOINT lIndex2
                {
                  OFFSET 2.54057 -0.884171 1.56538
                  CHANNELS 3 Zrotation Xrotation Yrotation
                  End Site
                  {
                    OFFSET 1.62519 -0.234802 1.16502
                  }
                }
              }
              JOINT lMid1
              {
                OFFSET 8.24714 1.18213 3.41376
                CHANNELS 3 Zrotation Xrotation Yrotation
                JOINT lMid2
                {
                  OFFSET 3.10165 -0.590103 1.0647
                  CHANNELS 3 Zrotation Xrotation Yrotation
                  End Site
                  {
                    OFFSET 2.48547 -0.328903 0.83742
                  }
                }
              }
              JOINT lRing1
              {
                OFFSET 8.82822 0.546677 1.51678
                CHANNELS 3 Zrotation Xrotation Yrotation
                JOINT lRing2
                {
                  OFFSET 2.60934 -0.819778 -0.0198488
                  CHANNELS 3 Zrotation Xrotation Yrotation
                  End Site
                  {
                    OFFSET 2.33842 -0.294052 0.168128
                  }
                }
              }
              JOINT lPinky1
              {
                OFFSET 8.27202 -0.0477905 -0.4584
                CHANNELS 3 Zrotation Xrotation Yrotation
                JOINT lPinky2
                {
                  OFFSET 1.82734 -0.647385 -0.700984
                  CHANNELS 3 Zrotation Xrotation Yrotation
                  End Site
                  {
                    OFFSET 1.69225 -0.51767 -0.607171
                  }
                }
              }
            }
          }
        }
      }
    }
  }
  JOINT rButtock
  {
    OFFSET -8.77824 4.35084 1.2192
    CHANNELS 3 Zrotation Xrotation Yrotation
    JOINT rThigh
    {
      OFFSET 0 -1.70687 -2.19456
      CHANNELS 3 Zrotation Xrotation Yrotation
      JOINT rShin
      {
        OFFSET 0 -36.8199 0.73152
        CHANNELS 3 Zrotation Xrotation Yrotation
        JOINT rFoot
        {
          OFFSET 0.73152 -45.1104 -5.12064
          CHANNELS 3 Zrotation Xrotation Yrotation
          End Site
          {
            OFFSET -1.1221 -3.69964 12.103
          }
        }
      }
    }
  }
  JOINT lButtock
  {
    OFFSET 8.77824 4.35084 1.2192
    CHANNELS 3 Zrotation Xrotation Yrotation
    JOINT lThigh
    {
      OFFSET 0 -1.70687 -2.19456
      CHANNELS 3 Zrotation Xrotation Yrotation
      JOINT lShin
      {
        OFFSET 0 -36.8199 0.73152
        CHANNELS 3 Zrotation Xrotation Yrotation
        JOINT lFoot
        {
          OFFSET -0.73152 -45.1104 -5.12064
          CHANNELS 3 Zrotation Xrotation Yrotation
          End Site
          {
            OFFSET 1.1221 -3.69964 12.103
          }
        }
      }
    }
  }
}
MOTION
Frames:	4
Frame Time:	0.03333
-7.003549651866371 34.08938535507443 10.630716269096892 1.9627004861831665 20.547399520874023 6.938700199127197 -8.31421947479248 9.885828971862793 2.0342698097229004 4.150879859924316 -9.708330154418945 0.8277629613876343 -8.438929557800293 16.162899017333984 -8.299180030822754 13.080699920654297 -25.275798797607422 -13.429299354553223 -0.0 0.0 -0.0 -0.0 0.0 -0.0 -5.0888872109300376e-14 9.54166352049382e-14 9.032774528350274e-13 38.090694427490234 37.22090148925781 15.280298233032227 -28.409095764160156 -34.48360061645508 74.49140167236328 -0.0008546261233277619 0.8310220241546631 0.11680100113153458 8.513517668617965e-10 6.021998455452149e-09 -4.9746100572178875e-09 1.463710264104634e-09 1.0394401783742069e-08 -8.600639311850955e-09 8.513580951330368e-10 6.021998455452149e-09 -4.974622491715763e-09 7.7309088706970215 5.474880218505859 0.41731396317481995 8.513517668617965e-10 6.021998455452149e-09 -4.9746100572178875e-09 2.9055399894714355 0.9651829600334167 0.10290198773145676 8.513580951330368e-10 6.021998455452149e-09 -4.9746100572178875e-09 10.27859878540039 0.73180091381073 0.025912299752235413 8.513517668617965e-10 6.021998455452149e-09 -4.974597178630802e-09 2.2216696739196777 -0.7334870100021362 -0.2089199721813202 -5.0888872109300376e-14 9.54166352049382e-14 9.032774528350274e-13 -56.41099548339844 56.71919250488281 -17.283395767211914 27.865398406982422 -41.07209777832031 -85.8648910522461 1.9473899602890015 -36.32609939575195 5.931280136108398 -1.2636406365729158e-09 3.7262193330889204e-08 -2.574767066221284e-09 -2.112670705045616e-09 6.288459530878754e-08 -4.471408132644683e-09 -1.2636470758664586e-09 3.7262193330889204e-08 -2.5747479703852605e-09 -7.7309088706970215 5.474880218505859 -0.41731396317481995 -1.2636406365729158e-09 3.7262193330889204e-08 -2.5747479703852605e-09 -2.9055399894714355 0.9651829600334167 -0.10290198773145676 -1.2636470758664586e-09 3.7262193330889204e-08 -2.5747606269277412e-09 -10.27859878540039 0.73180091381073 -0.025912299752235413 -1.2636406365729158e-09 3.7262193330889204e-08 -2.5747606269277412e-09 -2.2216696739196777 -0.7334870100021362 0.2089199721813202 -0.0 0.0 -0.0 -38.99100112915039 -57.460296630859375 -37.53200149536133 -1.3251599073410034 63.40189743041992 1.7556700706481934 2.4372799396514893 -0.8310959339141846 20.006397247314453 -0.0 0.0 -0.0 14.179198265075684 -0.5138480067253113 2.5750298500061035 0.06644973903894424 42.47269821166992 -2.5168700218200684 10.721697807312012 -19.23740005493164 31.431398391723633
-6.922877193681866 33.94270704264841 10.755162702640707 2.0186002254486084 19.75739860534668 6.969399452209473 -8.557089805603027 9.760919570922852 2.0032200813293457 4.207699775695801 -9.663739204406738 0.8164469003677368 -7.945019721984863 16.296199798583984 -8.176100730895996 12.225797653198242 -25.590700149536133 -13.363199234008789 -0.0 0.0 -0.0 -0.0 0.0 -0.0 6.361109013662547e-15 1.5266661632790113e-13 2.7988879660115207e-13 38.01569366455078 37.039695739746094 15.658596992492676 -28.392398834228516 -34.130401611328125 73.91119384765625 -0.0008907949668355286 0.8503369688987732 0.11951599270105362 -8.508810322993554e-10 -3.4648197644315815e-09 6.028232357735419e-10 -1.4716680096782397e-09 -5.992349283445719e-09 1.0439470399248307e-09 -8.508746485169638e-10 -3.4648197644315815e-09 6.028168519911503e-10 7.7309088706970215 5.474880218505859 0.41731396317481995 -8.508810322993554e-10 -3.4648197644315815e-09 6.028232357735419e-10 2.9055399894714355 0.9651829600334167 0.10290198773145676 -8.508746485169638e-10 -3.4648197644315815e-09 6.028232357735419e-10 10.27859878540039 0.73180091381073 0.025912299752235413 -8.508810322993554e-10 -3.4648197644315815e-09 6.028359478271739e-10 2.2216696739196777 -0.7334870100021362 -0.2089199721813202 6.361109013662547e-15 1.5266661632790113e-13 2.7988879660115207e-13 -56.51319122314453 56.67969512939453 -17.4075984954834 27.88409996032715 -40.986595153808594 -85.70819091796875 1.9192297458648682 -36.106502532958984 5.883609294891357 -1.011091876890191e-09 2.2653200204558743e-08 -1.3679374299968572e-09 -1.70711811353641e-09 3.82574967261462e-08 -2.3881703281602995e-09 -1.011098316183734e-09 2.2653200204558743e-08 -1.3679311017256168e-09 -7.7309088706970215 5.474880218505859 -0.41731396317481995 -1.011091876890191e-09 2.2653200204558743e-08 -1.3679374299968572e-09 -2.9055399894714355 0.9651829600334167 -0.10290198773145676 -1.011098316183734e-09 2.2653200204558743e-08 -1.3679374299968572e-09 -10.27859878540039 0.73180091381073 -0.025912299752235413 -1.011091876890191e-09 2.2653200204558743e-08 -1.3679374299968572e-09 -2.2216696739196777 -0.7334870100021362 0.2089199721813202 -0.0 0.0 -0.0 -39.77949523925781 -57.77190017700195 -38.83559799194336 -1.39044988155365 64.09959411621094 1.798029899597168 2.3672196865081787 -0.954055905342102 19.757797241210938 -0.0 0.0 -0.0 13.563799858093262 0.3320780098438263 3.3331799507141113 0.050741326063871384 41.94540023803711 -2.531169891357422 11.28449821472168 -19.437801361083984 32.458499908447266
-6.8763530199748875 33.855560659028214 10.874796294078685 2.324700117111206 19.12489891052246 6.8411993980407715 -8.830591201782227 9.594989776611328 1.9970999956130981 4.282759666442871 -9.596829414367676 0.812209963798523 -7.663290977478027 16.303199768066406 -8.064178466796875 11.698599815368652 -25.55579948425293 -13.260699272155762 -0.0 0.0 -0.0 -0.0 0.0 -0.0 2.5444436054650188e-14 1.4630550731423858e-13 -1.2722218027325094e-13 38.14299392700195 36.93910217285156 15.821298599243164 -28.374401092529297 -33.831302642822266 73.42469024658203 -0.0009773940546438098 0.890783965587616 0.1252020001411438 -1.5704370026625725e-09 -7.851892469545874e-09 3.2002802630159977e-09 -2.7115880651962243e-09 -1.3567800216662818e-08 5.534648295224542e-09 -1.5704370026625725e-09 -7.851892469545874e-09 3.200267606473517e-09 7.7309088706970215 5.474880218505859 0.41731396317481995 -1.5704370026625725e-09 -7.851879146869578e-09 3.200267606473517e-09 2.9055399894714355 0.9651829600334167 0.10290198773145676 -1.5704305633690296e-09 -7.851879146869578e-09 3.2002802630159977e-09 10.27859878540039 0.73180091381073 0.025912299752235413 -1.5704370026625725e-09 -7.851879146869578e-09 3.2002867023095405e-09 2.2216696739196777 -0.7334870100021362 -0.2089199721813202 2.5444436054650188e-14 1.4630550731423858e-13 -1.2722218027325094e-13 -56.537193298339844 56.72769546508789 -17.53460121154785 27.892702102661133 -40.946102142333984 -85.63439178466797 1.910659909248352 -36.03889846801758 5.869019508361816 -7.870536444798404e-10 1.2650299474614712e-08 -7.10071501597298e-10 -1.3371369567138913e-09 2.132669862930925e-08 -1.2498879708999766e-09 -7.87060028262232e-10 1.2650299474614712e-08 -7.100778853796896e-10 -7.7309088706970215 5.474880218505859 -0.41731396317481995 -7.870536444798404e-10 1.2650299474614712e-08 -7.100778853796896e-10 -2.9055399894714355 0.9651829600334167 -0.10290198773145676 -7.87060028262232e-10 1.2650299474614712e-08 -7.100778853796896e-10 -10.27859878540039 0.73180091381073 -0.025912299752235413 -7.870536444798404e-10 1.2650400726954558e-08 -7.1008421365093e-10 -2.2216696739196777 -0.7334870100021362 0.2089199721813202 -0.0 0.0 -0.0 -40.33649444580078 -58.07889938354492 -39.534996032714844 -1.4530301094055176 64.76019287109375 1.8479498624801636 2.3768699169158936 -1.0874899625778198 19.88759994506836 -0.0 0.0 -0.0 13.10669994354248 1.1402100324630737 4.045229911804199 0.035587165504693985 41.398197174072266 -2.5411999225616455 11.798799514770508 -19.70800018310547 33.2869987487793
-6.82885481726956 33.73105655574263 10.982798840422388 2.6706995964050293 18.531898498535156 6.884899616241455 -9.134489059448242 9.388030052185059 2.015899896621704 4.376029968261719 -9.507609367370605 0.8150469660758972 -7.592959403991699 16.18389892578125 -7.963628768920898 11.496997833251953 -25.17059898376465 -13.122798919677734 -0.0 0.0 -0.0 -0.0 0.0 -0.0 1.2722218027325094e-14 7.633330816395056e-14 -3.2441654614426274e-13 38.47059631347656 36.91969680786133 15.76979923248291 -28.358600616455078 -33.589698791503906 73.02689361572266 -0.0011270098621025681 0.952363133430481 0.13385899364948273 -1.3073288007703354e-09 -7.139187019333804e-09 2.8177487010339064e-09 -2.2560817658501264e-09 -1.2331899945650093e-08 4.8714583478215445e-09 -1.3073223614767926e-09 -7.139212776507975e-09 2.8177422617403636e-09 7.7309088706970215 5.474880218505859 0.41731396317481995 -1.3073288007703354e-09 -7.139187019333804e-09 2.8177422617403636e-09 2.9055399894714355 0.9651829600334167 0.10290198773145676 -1.3073223614767926e-09 -7.139187019333804e-09 2.8177487010339064e-09 10.27859878540039 0.73180091381073 0.025912299752235413 -1.3073288007703354e-09 -7.139187019333804e-09 2.8177487010339064e-09 2.2216696739196777 -0.7334870100021362 -0.2089199721813202 1.2722218027325094e-14 7.633330816395056e-14 -3.2441654614426274e-13 -56.48199462890625 56.863101959228516 -17.665096282958984 27.891700744628906 -40.95079803466797 -85.64309692382812 1.9214099645614624 -36.1233024597168 5.887279987335205 -5.915258838307125e-10 7.2536296968905845e-09 -6.011820485873898e-10 -1.0027525476630217e-09 1.2092098877758417e-08 -1.0565675001572572e-09 -5.915258838307125e-10 7.2536296968905845e-09 -6.011756648049982e-10 -7.7309088706970215 5.474880218505859 -0.41731396317481995 -5.915258838307125e-10 7.253648792726608e-09 -6.011884323697814e-10 -2.9055399894714355 0.9651829600334167 -0.10290198773145676 -5.915322676131041e-10 7.2536296968905845e-09 -6.011820485873898e-10 -10.27859878540039 0.73180091381073 -0.025912299752235413 -5.915131717770805e-10 7.253661671313694e-09 -6.011884323697814e-10 -2.2216696739196777 -0.7334870100021362 0.2089199721813202 -0.0 0.0 -0.0 -40.642799377441406 -58.39469909667969 -39.615196228027344 -1.513260006904602 65.38379669189453 1.905770182609558 2.4689695835113525 -1.230350136756897 20.395801544189453 -0.0 0.0 -0.0 12.811299324035645 1.9103999137878418 4.711479187011719 0.021137652918696404 40.831298828125 -2.5470898151397705 12.263599395751953 -20.052000045776367 33.917701721191406
